<svg width="20" height="20" fill="none" xmlns="http://www.w3.org/2000/svg"><path d="M1 8.35h5.333V6.345c0-.735.6-1.336 1.334-1.336h4.666c.734 0 1.334.601 1.334 1.336V8.35H19m-13.8 0c.267 3.14.733 7.283 1.133 9.02C6.533 15.434 5 8.083 9.8 8.35h.4c4.8-.267 3.267 7.083 3.467 9.02.333-1.737.866-5.88 1.133-9.02M17 4.675C17 2.67 15.333 1 13.333 1c-.933 0-1.8.334-2.466.935a1.246 1.246 0 01-1.734 0A3.655 3.655 0 006.667 1C4.667 1 3 2.67 3 4.675c-.133 3.408 1.733 10.891 2.4 13.43.133.468.467.802.933.87.734.133 1.334-.469 1.334-1.137V12.76c0-1.27.933-2.405 2.2-2.472a2.353 2.353 0 012.466 2.338v5.145c0 .535.4 1.07.934 1.203.6.134 1.133-.267 1.266-.802C15.2 15.7 17.133 8.082 17 4.675z" stroke="#364665" stroke-miterlimit="10" stroke-linecap="round" stroke-linejoin="round"/></svg>