<svg width="20" height="20" fill="none" xmlns="http://www.w3.org/2000/svg"><path d="M6.465 13.667v-1c0-.534.478-1 1.025-1h5.943c.341 0 .683.133.956.4l4.304 4.2c.41.4.41 1.066 0 1.4-.41.4-1.025.4-1.435 0l-4.167-4H6.465zm0 0L1.273 8.933C1.068 8.8 1 8.533 1 8.333c0-.733.888-1.133 1.435-.6L6.192 11.4c.136.133.273.4.273.667v1.6zm6.148-2V1H8.514v2L7.216 4.6m-.068 13.067h6.148V19H7.148v-1.333zm1.366-4h3.416v4H8.514v-4zm4.099-3.334H9.88c-1.16 0-2.049-.866-2.049-2h4.782v2zM6.739 4.2l1.09.805L6.59 6.6l-1.089-.805L6.74 4.199zm5.874 2.134h4.099v1.334h-4.1V6.333z" stroke="#364665" stroke-miterlimit="10" stroke-linecap="round" stroke-linejoin="round"/></svg>