<svg width="20" height="14" fill="none" xmlns="http://www.w3.org/2000/svg"><path d="M1 4.196h4m2 0h6m2 0h4m-7.933 1.761H8.933m8 0h.734c.733 0 1.333.634 1.333 1.409V13H1V7.366c0-.775.6-1.409 1.333-1.409h.734M17.6 2.577c-.2-.705-.733-1.268-1.4-1.48-.933-.281-1.733.141-2.2.775a1.905 1.905 0 00-2.2-.775c-.667.212-1.2.775-1.4 1.48-.133.563-.067 1.056.133 1.549.067.14.2.352.2.563L11.8 8.985c.067.282.333.493.667.493.4 0 .733-.352.733-.774V7.295c0-.422.333-.775.733-.775h.2c.4 0 .734.353.734.775v1.409c0 .422.333.774.733.774.333 0 .6-.21.667-.493l1.066-4.296c.067-.211.134-.352.2-.563.134-.423.2-.986.067-1.55zM5 3.14h2v2.113H5V3.14zm10 2.116h-2V3.143h2v2.113zm-5.4-2.68c-.2-.704-.733-1.267-1.4-1.479-.933-.281-1.733.141-2.2.775a1.905 1.905 0 00-2.2-.775c-.667.212-1.2.775-1.4 1.48-.133.563-.067 1.056.133 1.549.067.14.2.352.2.563L3.8 8.985c.067.282.333.493.667.493.4 0 .733-.352.733-.774V7.295c0-.422.333-.775.733-.775h.2c.4 0 .734.353.734.775v1.409c0 .422.333.774.733.774.333 0 .6-.21.667-.493L9.333 4.69c.067-.211.134-.352.2-.563.134-.423.2-.986.067-1.55z" stroke="#364665" stroke-miterlimit="10" stroke-linecap="round" stroke-linejoin="round"/></svg>