<svg width="20" height="20" fill="none" xmlns="http://www.w3.org/2000/svg"><path d="M3.5 7c0 4.91 2 12 4.5 12 .838 0 1-.546 1-2.727v-2.727c0-.65.5-1.091 1-1.091M16.5 7c0 4.91-2 12-4.5 12-.838 0-1-.546-1-2.727v-2.727c0-.65-.5-1.091-1-1.091" stroke="#364665" stroke-linejoin="round"/><path d="M13 1H7C5.333 1 3 2.196 3 4.587c0 0 0 2.092 2.267 6.815.2.359.666.598 1.133.598H7l.667-.24c.666-.298 1.333-.298 2.333-.298 1 0 1.667 0 2.333.299L13 12h.667c.466 0 .818-.19 1-.538C17 6.978 17 4.587 17 4.587 17 2.196 14.666 1 13 1z" stroke="#364665" stroke-miterlimit="10" stroke-linecap="round" stroke-linejoin="round"/></svg>