<svg width="20" height="20" fill="none" xmlns="http://www.w3.org/2000/svg"><path d="M19 8.333h-4.933m-8.134 0H1m12-6.666c.733 0 1.333.6 1.333 1.333v.667H5.667V3c0-.733.6-1.333 1.333-1.333m5.933 7.2c-.133-.534-.6-1-1.133-1.134-.733-.2-1.4.067-1.8.6-.4-.533-1.067-.8-1.8-.6-.533.134-1 .6-1.133 1.134-.134.4-.067.866.133 1.2l.2.4.867 2.8c.066.266.266.4.533.4.333 0 .6-.267.6-.6V12.2c0-.333.267-.6.6-.6h.2c.333 0 .6.267.6.6v.867c0 .333.267.6.6.6.267 0 .467-.134.533-.4l.867-2.8.2-.4c0-.334.067-.734-.067-1.2zm1.734 1.8a4.667 4.667 0 11-9.334 0 4.667 4.667 0 019.334 0zm3 7H2.333c-.733 0-1.333-.6-1.333-1.334V5c0-.733.6-1.333 1.333-1.333h15.334C18.4 3.667 19 4.267 19 5v11.333c0 .734-.6 1.334-1.333 1.334zM7 1h6v1.333H7V1zM3 17.667h1.333V19H3v-1.333zm12.667 0H17V19h-1.333v-1.333z" stroke="#364665" stroke-miterlimit="10" stroke-linecap="round" stroke-linejoin="round"/></svg>