<svg width="18" height="20" fill="none" xmlns="http://www.w3.org/2000/svg"><path d="M16.992 4.675C16.992 2.67 15.09 1 12.806 1c-1.066 0-2.055.334-2.816.935-.533.468-1.447.468-1.98 0C7.25 1.335 6.26 1 5.195 1 2.911 1 1.008 2.67 1.008 4.675c-.152 3.408 1.979 10.891 2.74 13.43.152.468.533.802 1.066.87.837.133 1.522-.469 1.522-1.137V12.76c0-1.27 1.066-2.405 2.512-2.472 1.522-.067 2.816 1.002 2.816 2.338v5.145c0 .535.457 1.07 1.066 1.203.685.134 1.294-.267 1.446-.802.761-2.472 2.969-10.09 2.816-13.497z" stroke="#364665" stroke-miterlimit="10" stroke-linecap="round" stroke-linejoin="round"/><path d="M9.38 5.677l1.523-.668V3.005l1.522 1.002 1.903-.668-.38 1.67 1.522.668-1.903.334.38 1.67-1.522-1.001-1.522 1.336v-1.67l-1.522-.669z" stroke="#364665" stroke-miterlimit="10" stroke-linecap="round" stroke-linejoin="round"/></svg>