<svg width="16" height="20" fill="none" xmlns="http://www.w3.org/2000/svg"><path d="M4.939 17.707l6.122-1.34m-6.122 0l6.122-1.34m-6.122 0l6.122-1.34m-6.122 0l6.122-1.341m-6.122 0l6.122-1.34m-6.122 0l6.122-1.341m-6.122 0l6.122-1.34m3.946-2.011c.136-1.407.136-2.346.136-2.346 0-1.675-1.36-3.016-3.061-3.016-.817 0-1.497.268-2.041.805C9.497 1.287 8.816.952 8 .952c-.816 0-1.497.268-2.04.805-.545-.47-1.225-.805-2.042-.805-1.7 0-3.06 1.34-3.06 3.016 0 0 0 .939.135 2.346h14.014zM9.7 19.048H6.299c-.408 0-.68-.268-.68-.67V6.313h4.762v12.063c0 .403-.272.67-.68.67z" stroke="#364665" stroke-miterlimit="10" stroke-linecap="round" stroke-linejoin="round"/></svg>