<svg width="20" height="20" fill="none" xmlns="http://www.w3.org/2000/svg"><path d="M5.308 13.904a.5.5 0 00-.969.25l.968-.25zm.64 4.201l-.484.126.008.027.476-.152zm1.05.87l.08-.495a.473.473 0 00-.017-.002l-.063.496zm3.973-8.687l-.022-.5h-.002l.024.5zm3.823 8.686l-.108.488.011.003.097-.49zm1.425-.802l-.48-.141-.002.006.482.135zm2.774-13.497h-.5v.022l.5-.022zm-6.897-2.74l-.313-.39a.487.487 0 00-.02.017l.332.373zm-1.95 0l.333-.373a.427.427 0 00-.02-.017l-.313.39zM3.25 4.675l.5.03a.5.5 0 000-.03h-.5zm.109 5.106a.5.5 0 00.982-.19l-.982.19zm1.39-2.6a.5.5 0 000 1v-1zm2.5 3.174a.5.5 0 001 0h-1zm1-5.346a.5.5 0 00-1 0h1zm2.498 3.173a.5.5 0 000-1v1zM1 11.859a.5.5 0 000 1v-1zm1.75 2.505a.5.5 0 101 0h-1zm1-4.01a.5.5 0 10-1 0h1zm1.748 2.505a.5.5 0 000-1v1zM4.34 14.155c.227.874.453 1.68.65 2.375.198.698.364 1.274.475 1.7l.968-.25c-.114-.442-.286-1.035-.48-1.723a99.92 99.92 0 01-.644-2.353l-.969.25zm1.133 4.103a1.73 1.73 0 001.462 1.212l.127-.992a.733.733 0 01-.637-.525l-.952.305zm1.446 1.21c1.097.177 2.079-.622 2.079-1.63h-1c0 .329-.367.732-.92.642l-.16.988zm2.079-1.63V12.76h-1v5.078h1zm0-5.078c0-.992.829-1.918 1.997-1.973l-.046-.999c-1.68.08-2.951 1.425-2.951 2.972h1zm1.996-1.973c1.278-.057 2.252.847 2.252 1.84h1c0-1.681-1.575-2.915-3.296-2.839l.044 1zm2.252 1.84v5.144h1v-5.145h-1zm0 5.144c0 .8.643 1.513 1.44 1.691l.218-.976c-.402-.09-.658-.445-.658-.715h-1zm1.452 1.694c.918.181 1.78-.359 2.003-1.158l-.963-.27c-.075.27-.414.532-.845.447l-.195.98zm2.001-1.151a122.44 122.44 0 001.732-6.45c.617-2.624 1.14-5.428 1.062-7.211l-.999.044c.072 1.625-.417 4.3-1.037 6.938a121.695 121.695 0 01-1.717 6.396l.96.283zm2.795-13.639C19.493 2.342 17.339.5 14.869.5v1c2.029 0 3.624 1.5 3.624 3.175h1zM14.869.5c-1.155 0-2.242.368-3.086 1.045l.625.78c.655-.525 1.517-.825 2.461-.825v-1zm-3.106 1.062c-.335.299-.949.299-1.284 0l-.665.747c.714.636 1.9.636 2.614 0l-.665-.747zm-1.304-.017C9.614.868 8.528.5 7.372.5v1c.944 0 1.807.3 2.461.825l.626-.78zM7.372.5C4.902.5 2.75 2.342 2.75 4.675h1C3.75 2.999 5.344 1.5 7.372 1.5v-1zM2.75 4.646c-.08 1.343.236 3.21.608 5.135l.982-.19c-.378-1.95-.662-3.691-.592-4.887l-.998-.058zm1.998 3.536c1.436 0 2.5 1.025 2.5 2.173h1c0-1.805-1.623-3.173-3.5-3.173v1zm2.5-3.173c0 1.147-1.064 2.173-2.5 2.173v1c1.877 0 3.5-1.368 3.5-3.173h-1zm0 0c0 1.805 1.621 3.173 3.498 3.173v-1c-1.436 0-2.499-1.026-2.499-2.173h-1zm1 5.346c0-1.148 1.062-2.173 2.498-2.173v-1c-1.877 0-3.499 1.368-3.499 3.173h1zM1 12.859c1.022 0 1.75.726 1.75 1.505h1c0-1.436-1.287-2.505-2.75-2.505v1zm1.75-2.504c0 .778-.728 1.504-1.75 1.504v1c1.463 0 2.75-1.069 2.75-2.504h-1zm0 0c0 1.435 1.286 2.504 2.748 2.504v-1c-1.022 0-1.749-.726-1.749-1.504h-1zm1 4.009c0-.779.726-1.505 1.748-1.505v-1c-1.462 0-2.749 1.069-2.749 2.505h1z" fill="#364665"/></svg>