<svg width="18" height="20" fill="none" xmlns="http://www.w3.org/2000/svg"><path d="M15.192 3.005C14.566 1.802 13.245 1 11.785 1c-.974 0-1.878.334-2.573.935-.487.468-1.321.468-1.808 0A3.907 3.907 0 004.831 1C2.745 1 1.007 2.67 1.007 4.675.868 8.083 2.815 15.566 3.51 18.105c.14.468.487.802.974.87a1.18 1.18 0 001.39-1.137V12.76c0-1.27.974-2.405 2.295-2.472 1.39-.067 2.573 1.002 2.573 2.338v5.145c0 .535.417 1.07.973 1.203a1.12 1.12 0 001.322-.802c.417-1.47 1.251-4.744 1.877-7.817M17 6.345l-1.39-2.004h-3.477l-1.391 2.004m6.258 0l-3.129 3.341M17 6.346h-6.258m3.129 3.34l-3.13-3.34m3.13 3.34l-1.39-3.34.695-2.005m.695 5.345l1.39-3.34-.695-2.005" stroke="#364665" stroke-miterlimit="10" stroke-linecap="round" stroke-linejoin="round"/></svg>