<svg width="18" height="20" fill="none" xmlns="http://www.w3.org/2000/svg"><path d="M10.742 1.134c-.556.134-1.113.468-1.53.802-.556.469-1.321.469-1.808 0A3.904 3.904 0 004.831 1C2.745 1 1.007 2.672 1.007 4.679.868 8.089 2.815 15.58 3.51 18.122c.14.468.487.803.974.87.695.066 1.39-.469 1.39-1.137V12.77c0-1.27.974-2.407 2.295-2.474 1.39-.067 2.573 1.003 2.573 2.34v5.15c0 .536.417 1.07.973 1.204.626.067 1.183-.267 1.322-.802.556-1.94 1.807-6.822 2.364-10.5m-1.53-2.007V2.338M12.133 4.01h3.476m1.391 0c0 1.662-1.4 3.01-3.129 3.01-1.728 0-3.13-1.348-3.13-3.01 0-1.662 1.402-3.01 3.13-3.01S17 2.348 17 4.01z" stroke="#364665" stroke-miterlimit="10" stroke-linecap="round" stroke-linejoin="round"/></svg>