<svg width="16" height="20" fill="none" xmlns="http://www.w3.org/2000/svg"><path d="M11.6 7.8l.485-.121a.439.439 0 00-.006-.023L11.6 7.8zm-1.4-1.4l.144-.479-.007-.002-.137.481zM8 7.133l-.41.287a.5.5 0 00.805.02L8 7.133zM5.8 6.4l.144.479.003-.001L5.8 6.4zM4.4 7.8l-.479-.144a.498.498 0 00-.006.023l.485.12zm.133 1.467l-.46.197a.502.502 0 00.013.026l.447-.223zm.2.533h-.5a.5.5 0 00.023.15l.477-.15zM5.8 13.2l.485-.121a.49.49 0 00-.008-.029l-.477.15zm4.467 0l-.477-.15a.49.49 0 00-.008.029l.485.12zm1.066-3.4l-.474-.158-.003.008.477.15zM1 9.833a.5.5 0 000 1v-1zm2.933-1.1l.422-.268a.502.502 0 00-.022-.032l-.4.3zm.512 1.735a.5.5 0 10.843-.536l-.843.536zm6.266-.603a.5.5 0 10.844.537l-.844-.537zm1.356-1.198l.421.268a.51.51 0 00.026-.045l-.447-.223zm2.933 2.1a.5.5 0 000-1v1zM13 3.5a.5.5 0 000-1v1zm-2.667-1a.5.5 0 100 1v-1zM13 4.833a.5.5 0 100-1v1zm-1.333-1a.5.5 0 100 1v-1zM13 18.5H3v1h10v-1zm-10 0c-.857 0-1.5-.643-1.5-1.5h-1c0 1.41 1.09 2.5 2.5 2.5v-1zM1.5 17V3h-1v14h1zm0-14c0-.857.643-1.5 1.5-1.5v-1C1.59.5.5 1.59.5 3h1zM3 1.5h10v-1H3v1zm10 0c.857 0 1.5.643 1.5 1.5h1c0-1.41-1.09-2.5-2.5-2.5v1zM14.5 3v14h1V3h-1zm0 14c0 .857-.643 1.5-1.5 1.5v1c1.41 0 2.5-1.09 2.5-2.5h-1zm-2.421-9.344a2.604 2.604 0 00-1.735-1.735l-.288.958c.506.152.913.559 1.065 1.065l.958-.288zM10.337 5.92c-1.163-.332-2.163.176-2.732.907l.79.614c.364-.469.964-.76 1.668-.56l.274-.96zm-1.927.928a2.46 2.46 0 00-2.757-.925l.294.956a1.46 1.46 0 011.643.542l.82-.573zM5.656 5.92a2.604 2.604 0 00-1.735 1.735l.958.288a1.604 1.604 0 011.065-1.065l-.288-.958zM3.915 7.679c-.164.654-.078 1.233.159 1.785l.919-.394c-.164-.382-.211-.737-.108-1.149l-.97-.242zm.171 1.811c.021.043.05.093.066.125.02.038.037.07.051.1.03.067.03.09.03.085h1c0-.205-.066-.382-.12-.499-.04-.087-.13-.253-.132-.258l-.895.447zm.17.46l1.067 3.4.954-.3-1.067-3.4-.954.3zm1.059 3.371c.13.524.626.846 1.152.846v-1c-.141 0-.18-.078-.182-.088l-.97.242zm1.152.846A1.24 1.24 0 007.7 12.933h-1a.24.24 0 01-.233.234v1zM7.7 12.933V11.6h-1v1.333h1zm0-1.333a.24.24 0 01.233-.233v-1A1.24 1.24 0 006.7 11.6h1zm.233-.233h.2v-1h-.2v1zm.2 0a.24.24 0 01.234.233h1a1.24 1.24 0 00-1.234-1.233v1zm.234.233v1.333h1V11.6h-1zm0 1.333A1.24 1.24 0 009.6 14.167v-1a.24.24 0 01-.233-.234h-1zM9.6 14.167c.526 0 1.02-.322 1.152-.846l-.97-.242c-.003.01-.041.088-.182.088v1zm1.144-.817l1.066-3.4-.954-.3-1.066 3.4.954.3zm1.064-3.392a4.26 4.26 0 01.09-.239c.033-.083.071-.179.11-.294l-.949-.317a4.258 4.258 0 01-.09.24 5.185 5.185 0 00-.11.294l.949.316zm.2-.533a3.177 3.177 0 00.077-1.746l-.97.242a2.18 2.18 0 01-.056 1.187l.949.317zM1 10.833h.467v-1H1v1zm.467 0c.742 0 1.366-.623 1.366-1.366h-1c0 .19-.176.366-.366.366v1zm1.366-1.366V9.2h-1v.267h1zm0-.267c0-.19.176-.367.367-.367v-1c-.743 0-1.367.624-1.367 1.367h1zm.367-.367c.09 0 .216.043.333.2l.8-.6c-.282-.376-.69-.6-1.133-.6v1zm.311.169l.934 1.466.843-.536-.933-1.467-.844.537zm8.044 1.4l.934-1.467-.844-.537-.934 1.467.844.537zm.959-1.512c.027-.055.09-.123.286-.123v-1c-.47 0-.941.198-1.18.676l.894.447zm.286-.123c.19 0 .367.176.367.366h1c0-.742-.624-1.366-1.367-1.366v1zm.367.366V9.4h1v-.267h-1zm0 .267c0 .743.623 1.367 1.366 1.367v-1a.383.383 0 01-.366-.367h-1zm1.366 1.367H15v-1h-.467v1zM13 2.5h-2.667v1H13v-1zm0 1.333h-1.333v1H13v-1z" fill="#364665"/></svg>