<svg width="42" height="44" fill="none" xmlns="http://www.w3.org/2000/svg"><path d="M39.933 4.704C37.58 1.534 35.107.056 32.153.056c-1.914 0-3.77.614-5.562 1.206l-.06.02c-1.911.628-3.717 1.22-5.665 1.22-1.953 0-3.867-.641-5.73-1.266C13.31.628 11.42 0 9.53 0 6.56 0 4.146 1.507 1.933 4.74c-3.481 5.07-1.505 10.5.09 14.878.71 1.948 1.38 3.788 1.38 5.178C3.402 31.928 4.906 44 10.544 44c3.859 0 5.046-4.483 6.096-8.45 1.115-4.176 2.08-7.131 4.362-7.131 1.969 0 2.722 1.913 3.766 6.5.904 4.009 2.028 8.997 6.77 8.997 6.617 0 7.131-14.642 7.131-19.13 0-1.317.649-3.141 1.335-5.073l.028-.077c1.58-4.469 3.545-10.03-.1-14.932zM36.622 18.43l-.025.072c-.794 2.233-1.544 4.343-1.544 6.284 0 4.26-.448 8.388-1.23 11.327-.912 3.434-1.958 4.186-2.285 4.186-1.452 0-2.149-1.328-3.246-6.192-.894-3.927-2.118-9.305-7.29-9.305-5.235 0-6.75 5.672-7.86 9.833-.607 2.289-1.522 5.748-2.597 5.748-.167 0-1.218-.725-2.18-4.172-.855-3.067-1.346-7.228-1.346-11.416 0-2.028-.777-4.16-1.604-6.43-1.44-3.954-2.928-8.043-.5-11.58C6.825 3.993 8.32 3.617 9.53 3.617c1.306 0 2.84.51 4.469 1.051 2.027.68 4.324 1.451 6.867 1.451 2.527 0 4.795-.744 6.795-1.401l.062-.02c1.594-.527 3.1-1.025 4.43-1.025 1.242 0 2.793.379 4.878 3.188 2.495 3.356 1.02 7.532-.408 11.57z" fill="#02CAE1"/></svg>