<svg width="20" height="20" viewBox="0 0 20 20" fill="none" xmlns="http://www.w3.org/2000/svg">
<path d="M3.5 7C3.5 11.9091 5.5 19 8 19C8.83769 19 9 18.4545 9 16.2727C9 16.0545 9 14.3636 9 13.5455C9 12.8951 9.5 12.4545 10 12.4545" stroke="#364665" stroke-linejoin="round"/>
<path d="M16.5 7C16.5 11.9091 14.5 19 12 19C11.1623 19 11 18.4545 11 16.2727C11 16.0545 11 14.3636 11 13.5455C11 12.8951 10.5 12.4545 10 12.4545" stroke="#364665" stroke-linejoin="round"/>
<path d="M12.9998 1C12.1998 1 12.3331 1.00006 11.6664 1.00006C10.9998 1.00006 10.7998 1 9.99976 1C9.19976 1 8.99976 1.00005 8.33309 1.00005C7.66643 1.00007 7.79976 1 6.99976 1C5.33309 1 3 2.19572 3 4.58701C3 4.58701 3 6.67938 5.26659 11.4022C5.46659 11.7609 5.93325 12 6.39992 12C6.76231 12 6.81389 12 7 12L7.66667 11.7608C8.33333 11.4619 9 11.4619 10 11.4619C11 11.462 11.6667 11.4619 12.3333 11.7608L13 12C13.5113 12 13.2216 12 13.6667 12C14.1333 12 14.4854 11.8103 14.6667 11.462C17 6.97829 17 4.58701 17 4.58701C17 2.19572 14.6664 1 12.9998 1Z" stroke="#364665" stroke-miterlimit="10" stroke-linecap="round" stroke-linejoin="round"/>
</svg>
