<svg width="16" height="20" viewBox="0 0 16 20" fill="none" xmlns="http://www.w3.org/2000/svg">
<path d="M4.93875 17.7072L11.0612 16.3669M4.93875 16.3669L11.0612 15.0265M4.93875 15.0265L11.0612 13.6861M4.93875 13.6861L11.0612 12.3457M4.93875 12.3457L11.0612 11.0053M4.93875 11.0053L11.0612 9.66491M4.93875 9.66491L11.0612 8.32453M15.0068 6.31394C15.1428 4.90654 15.1428 3.96827 15.1428 3.96827C15.1428 2.29278 13.7823 0.952393 12.0816 0.952393C11.2653 0.952393 10.585 1.22047 10.0408 1.75663C9.49657 1.28749 8.8163 0.952393 7.99997 0.952393C7.18365 0.952393 6.50338 1.22047 5.95916 1.75663C5.41494 1.28749 4.73467 0.952393 3.91834 0.952393C2.21766 0.952393 0.857117 2.29278 0.857117 3.96827C0.857117 3.96827 0.857115 4.90654 0.993169 6.31394H15.0068ZM9.70065 19.0476H6.29929C5.89113 19.0476 5.61902 18.7796 5.61902 18.3774V6.31394H10.3809V18.3774C10.3809 18.7796 10.1088 19.0476 9.70065 19.0476Z" stroke="#364665" stroke-miterlimit="10" stroke-linecap="round" stroke-linejoin="round"/>
</svg>
