<svg width="20" height="20" viewBox="0 0 20 20" fill="none" xmlns="http://www.w3.org/2000/svg">
<path d="M6.4649 13.6667V12.6667C6.4649 12.1333 6.94308 11.6667 7.48956 11.6667H13.4326C13.7742 11.6667 14.1158 11.8 14.389 12.0667L18.6926 16.2667C19.1025 16.6667 19.1025 17.3333 18.6926 17.6667C18.2827 18.0667 17.6679 18.0667 17.2581 17.6667L13.0911 13.6667H6.4649ZM6.4649 13.6667L1.27324 8.93333C1.06831 8.8 1 8.53333 1 8.33333C1 7.6 1.88805 7.2 2.43454 7.73333L6.19166 11.4C6.32828 11.5333 6.4649 11.8 6.4649 12.0667V13.6667ZM12.6129 11.6667V1H8.51423V3L7.21632 4.6M7.14801 17.6667H13.296V19H7.14801V17.6667ZM8.51423 13.6667H11.9298V17.6667H8.51423V13.6667ZM12.6129 10.3333H9.88046C8.71917 10.3333 7.83112 9.46667 7.83112 8.33333H12.6129V10.3333ZM6.73933 4.19925L7.82848 5.00418L6.59129 6.59858L5.50214 5.79365L6.73933 4.19925ZM12.6129 6.33333H16.7116V7.66667H12.6129V6.33333Z" stroke="#364665" stroke-miterlimit="10" stroke-linecap="round" stroke-linejoin="round"/>
</svg>
