<svg width="18" height="20" viewBox="0 0 18 20" fill="none" xmlns="http://www.w3.org/2000/svg">
<path d="M10.7419 1.13377C10.1856 1.26753 9.62935 1.60195 9.21214 1.93636C8.65587 2.40454 7.89099 2.40454 7.40425 1.93636C6.7089 1.33441 5.80496 1 4.83147 1C2.74544 1 1.00708 2.67207 1.00708 4.67856C0.868013 8.0896 2.81498 15.5805 3.51033 18.122C3.64939 18.5902 3.99706 18.9246 4.4838 18.9915C5.24868 19.0584 5.87449 18.5233 5.87449 17.8545V12.7714C5.87449 11.5006 6.84797 10.3636 8.16913 10.2967C9.55982 10.2299 10.7419 11.3 10.7419 12.6376V17.7876C10.7419 18.3227 11.1591 18.8578 11.7154 18.9915C12.3412 19.0584 12.8975 18.724 13.0365 18.1889C13.5928 16.2493 14.8444 11.3669 15.4007 7.6883M11.6459 6.14999L16.0961 1.86948M17 4.00973C17 5.67196 15.5991 7.01947 13.871 7.01947C12.1428 7.01947 10.7419 5.67196 10.7419 4.00973C10.7419 2.3475 12.1428 1 13.871 1C15.5991 1 17 2.3475 17 4.00973Z" stroke="#364665" stroke-miterlimit="10" stroke-linecap="round" stroke-linejoin="round"/>
</svg>
