<svg width="20" height="20" viewBox="0 0 20 20" fill="none" xmlns="http://www.w3.org/2000/svg">
<path d="M5.3075 13.9042C5.23828 13.6369 4.96546 13.4763 4.69813 13.5455C4.43081 13.6147 4.27021 13.8876 4.33942 14.1549L5.3075 13.9042ZM5.948 18.1055L5.46396 18.2308C5.46633 18.24 5.46897 18.2491 5.47186 18.2581L5.948 18.1055ZM6.99756 18.9741L7.07754 18.4805C7.07195 18.4796 7.06634 18.4788 7.06071 18.4781L6.99756 18.9741ZM10.9709 10.2877L10.9487 9.78822L10.9475 9.78828L10.9709 10.2877ZM14.7943 18.9741L14.6856 19.4623L14.6972 19.4646L14.7943 18.9741ZM16.2188 18.1723L15.7392 18.0307L15.7373 18.0373L16.2188 18.1723ZM18.9926 4.675H18.4926C18.4926 4.68233 18.4928 4.68966 18.4931 4.69698L18.9926 4.675ZM12.0955 1.93545L11.7826 1.54543C11.7759 1.55084 11.7692 1.55643 11.7628 1.56219L12.0955 1.93545ZM10.1463 1.93545L10.4789 1.56219C10.4725 1.55643 10.4659 1.55084 10.4591 1.54543L10.1463 1.93545ZM3.24911 4.675L3.74824 4.70448C3.74882 4.69466 3.74911 4.68483 3.74911 4.675H3.24911ZM3.35796 9.78133C3.41041 10.0524 3.67271 10.2297 3.94382 10.1773C4.21494 10.1248 4.39221 9.86252 4.33976 9.59141L3.35796 9.78133ZM4.74845 7.18182C4.47231 7.18182 4.24845 7.40568 4.24845 7.68182C4.24845 7.95797 4.47231 8.18182 4.74845 8.18182V7.18182ZM7.24722 10.3546C7.24722 10.6307 7.47108 10.8546 7.74722 10.8546C8.02336 10.8546 8.24722 10.6307 8.24722 10.3546H7.24722ZM8.24722 5.00909C8.24722 4.73295 8.02336 4.50909 7.74722 4.50909C7.47108 4.50909 7.24722 4.73295 7.24722 5.00909H8.24722ZM10.746 8.18182C11.0221 8.18182 11.246 7.95797 11.246 7.68182C11.246 7.40568 11.0221 7.18182 10.746 7.18182V8.18182ZM1 11.8591C0.723858 11.8591 0.5 12.083 0.5 12.3591C0.5 12.6352 0.723858 12.8591 1 12.8591V11.8591ZM2.74907 14.3636C2.74907 14.6398 2.97293 14.8636 3.24907 14.8636C3.52521 14.8636 3.74907 14.6398 3.74907 14.3636H2.74907ZM3.74907 10.3546C3.74907 10.0784 3.52521 9.85455 3.24907 9.85455C2.97293 9.85455 2.74907 10.0784 2.74907 10.3546H3.74907ZM5.49815 12.8591C5.77429 12.8591 5.99815 12.6352 5.99815 12.3591C5.99815 12.083 5.77429 11.8591 5.49815 11.8591V12.8591ZM4.33942 14.1549C4.56582 15.0293 4.792 15.8356 4.98907 16.5298C5.18723 17.2278 5.35341 17.8038 5.46396 18.2308L6.43204 17.9801C6.31767 17.5385 6.1465 16.9452 5.95106 16.2567C5.75455 15.5645 5.53092 14.7671 5.3075 13.9042L4.33942 14.1549ZM5.47186 18.2581C5.67925 18.905 6.21104 19.378 6.93441 19.4701L7.06071 18.4781C6.73452 18.4366 6.51662 18.2414 6.42413 17.9528L5.47186 18.2581ZM6.91758 19.4677C8.01455 19.6454 8.99694 18.8458 8.99694 17.8382H7.99694C7.99694 18.167 7.62989 18.57 7.07754 18.4805L6.91758 19.4677ZM8.99694 17.8382V12.76H7.99694V17.8382H8.99694ZM8.99694 12.76C8.99694 11.7681 9.82597 10.842 10.9944 10.7872L10.9475 9.78828C9.26706 9.86711 7.99694 11.2128 7.99694 12.76H8.99694ZM10.9932 10.7872C12.2709 10.7303 13.2448 11.6342 13.2448 12.6264H14.2448C14.2448 10.9458 12.6697 9.71153 10.9487 9.78823L10.9932 10.7872ZM13.2448 12.6264V17.7714H14.2448V12.6264H13.2448ZM13.2448 17.7714C13.2448 18.5704 13.8881 19.2844 14.6856 19.4621L14.9031 18.4861C14.5011 18.3965 14.2448 18.0414 14.2448 17.7714H13.2448ZM14.6972 19.4646C15.6147 19.6463 16.4761 19.106 16.7002 18.3073L15.7373 18.0373C15.6615 18.3076 15.3234 18.5692 14.8915 18.4836L14.6972 19.4646ZM16.6983 18.3139C17.0739 17.0419 17.808 14.5088 18.4298 11.8638C19.0467 9.23953 19.5706 6.43568 19.4921 4.65302L18.4931 4.69698C18.5646 6.32205 18.0764 8.99731 17.4563 11.635C16.8411 14.252 16.1134 16.7636 15.7392 18.0307L16.6983 18.3139ZM19.4926 4.675C19.4926 2.34176 17.3389 0.5 14.8693 0.5V1.5C16.8979 1.5 18.4926 2.99915 18.4926 4.675H19.4926ZM14.8693 0.5C13.7142 0.5 12.6272 0.867893 11.7826 1.54543L12.4083 2.32548C13.0631 1.80028 13.9253 1.5 14.8693 1.5V0.5ZM11.7628 1.56219C11.4276 1.86093 10.8141 1.86093 10.4789 1.56219L9.81358 2.30871C10.528 2.94542 11.7138 2.94542 12.4281 2.30871L11.7628 1.56219ZM10.4591 1.54543C9.61447 0.867893 8.5275 0.5 7.37241 0.5V1.5C8.31645 1.5 9.17867 1.80028 9.8334 2.32548L10.4591 1.54543ZM7.37241 0.5C4.90285 0.5 2.74911 2.34176 2.74911 4.675H3.74911C3.74911 2.99915 5.34381 1.5 7.37241 1.5V0.5ZM2.74998 4.64553C2.67064 5.98909 2.98566 7.85675 3.35796 9.78133L4.33976 9.59141C3.96237 7.64053 3.67764 5.9 3.74824 4.70448L2.74998 4.64553ZM4.74845 8.18182C6.18415 8.18182 7.24722 9.20714 7.24722 10.3546H8.24722C8.24722 8.54975 6.6251 7.18182 4.74845 7.18182V8.18182ZM7.24722 5.00909C7.24722 6.1565 6.18415 7.18182 4.74845 7.18182V8.18182C6.6251 8.18182 8.24722 6.8139 8.24722 5.00909H7.24722ZM7.24722 5.00909C7.24722 6.8139 8.86933 8.18182 10.746 8.18182V7.18182C9.31029 7.18182 8.24722 6.1565 8.24722 5.00909H7.24722ZM8.24722 10.3546C8.24722 9.20714 9.31029 8.18182 10.746 8.18182V7.18182C8.86933 7.18182 7.24722 8.54975 7.24722 10.3546H8.24722ZM1 12.8591C2.02165 12.8591 2.74907 13.5853 2.74907 14.3636H3.74907C3.74907 12.9279 2.46261 11.8591 1 11.8591V12.8591ZM2.74907 10.3546C2.74907 11.1329 2.02165 11.8591 1 11.8591V12.8591C2.46261 12.8591 3.74907 11.7903 3.74907 10.3546H2.74907ZM2.74907 10.3546C2.74907 11.7903 4.03554 12.8591 5.49815 12.8591V11.8591C4.4765 11.8591 3.74907 11.1329 3.74907 10.3546H2.74907ZM3.74907 14.3636C3.74907 13.5853 4.4765 12.8591 5.49815 12.8591V11.8591C4.03554 11.8591 2.74907 12.9279 2.74907 14.3636H3.74907Z" fill="#364665"/>
</svg>
