<svg width="20" height="20" viewBox="0 0 20 20" fill="none" xmlns="http://www.w3.org/2000/svg">
<path d="M19 8.33333H14.0667M5.93333 8.33333H1M13 1.66667C13.7333 1.66667 14.3333 2.26667 14.3333 3V3.66667H5.66667V3C5.66667 2.26667 6.26667 1.66667 7 1.66667M12.9333 8.86667C12.8 8.33334 12.3333 7.86667 11.8 7.73333C11.0667 7.53333 10.4 7.8 10 8.33334C9.6 7.8 8.93332 7.53333 8.19999 7.73333C7.66665 7.86667 7.2 8.33334 7.06667 8.86667C6.93333 9.26667 6.99999 9.73333 7.19999 10.0667C7.26665 10.2 7.33333 10.3333 7.4 10.4667L8.26666 13.2667C8.33332 13.5333 8.53334 13.6667 8.8 13.6667C9.13334 13.6667 9.4 13.4 9.4 13.0667V12.2C9.4 11.8667 9.66666 11.6 10 11.6H10.2C10.5333 11.6 10.8 11.8667 10.8 12.2V13.0667C10.8 13.4 11.0667 13.6667 11.4 13.6667C11.6667 13.6667 11.8667 13.5333 11.9333 13.2667L12.8 10.4667C12.8667 10.3333 12.9333 10.2 13 10.0667C13 9.73333 13.0667 9.33334 12.9333 8.86667ZM14.6667 10.6667C14.6667 13.244 12.5773 15.3333 10 15.3333C7.42267 15.3333 5.33333 13.244 5.33333 10.6667C5.33333 8.08934 7.42267 6 10 6C12.5773 6 14.6667 8.08934 14.6667 10.6667ZM17.6667 17.6667H2.33333C1.6 17.6667 1 17.0667 1 16.3333V5C1 4.26667 1.6 3.66667 2.33333 3.66667H17.6667C18.4 3.66667 19 4.26667 19 5V16.3333C19 17.0667 18.4 17.6667 17.6667 17.6667ZM7 1H13V2.33333H7V1ZM3 17.6667H4.33333V19H3V17.6667ZM15.6667 17.6667H17V19H15.6667V17.6667Z" stroke="#364665" stroke-miterlimit="10" stroke-linecap="round" stroke-linejoin="round"/>
</svg>
