<svg width="16" height="20" viewBox="0 0 16 20" fill="none" xmlns="http://www.w3.org/2000/svg">
<path d="M11.6 7.79995L12.085 7.67868C12.0832 7.67117 12.0811 7.6637 12.0789 7.65628L11.6 7.79995ZM10.2 6.39996L10.3436 5.921L10.3373 5.9192L10.2 6.39996ZM7.99996 7.13328L7.59034 7.42002C7.68136 7.55004 7.82871 7.62913 7.98738 7.63313C8.14605 7.63712 8.29719 7.56554 8.39464 7.44025L7.99996 7.13328ZM5.79996 6.39996L5.94364 6.87888L5.947 6.87785L5.79996 6.39996ZM4.39996 7.79995L3.92105 7.65628C3.91882 7.6637 3.91677 7.67117 3.91489 7.67868L4.39996 7.79995ZM4.53329 9.26662L4.07372 9.46358C4.07758 9.47258 4.0817 9.48146 4.08608 9.49022L4.53329 9.26662ZM4.73329 9.79995H4.23329C4.23329 9.85072 4.24102 9.90118 4.25622 9.94962L4.73329 9.79995ZM5.79996 13.1999L6.28503 13.0787C6.28264 13.0691 6.27998 13.0597 6.27703 13.0503L5.79996 13.1999ZM10.2666 13.1999L9.78955 13.0503C9.78661 13.0597 9.78394 13.0691 9.78156 13.0787L10.2666 13.1999ZM11.3333 9.79995L10.8589 9.64181L10.8562 9.65028L11.3333 9.79995ZM1 9.83332C0.723858 9.83332 0.5 10.0572 0.5 10.3333C0.5 10.6095 0.723858 10.8333 1 10.8333V9.83332ZM3.93333 8.73332L4.35516 8.46488C4.34829 8.45409 4.34101 8.44356 4.33333 8.43332L3.93333 8.73332ZM4.44484 10.4684C4.59309 10.7014 4.90213 10.7701 5.1351 10.6218C5.36807 10.4736 5.43675 10.1645 5.2885 9.93155L4.44484 10.4684ZM10.7115 9.86493C10.5632 10.0979 10.6319 10.4069 10.8649 10.5552C11.0979 10.7035 11.4069 10.6348 11.5552 10.4018L10.7115 9.86493ZM12.0667 8.66671L12.4885 8.93515C12.4977 8.92065 12.5062 8.90569 12.5139 8.89032L12.0667 8.66671ZM15 10.7667C15.2761 10.7667 15.5 10.5428 15.5 10.2667C15.5 9.99056 15.2761 9.7667 15 9.7667V10.7667ZM13 3.49997C13.2761 3.49997 13.5 3.27612 13.5 2.99997C13.5 2.72383 13.2761 2.49997 13 2.49997V3.49997ZM10.3333 2.49997C10.0571 2.49997 9.83329 2.72383 9.83329 2.99997C9.83329 3.27612 10.0571 3.49997 10.3333 3.49997V2.49997ZM13 4.83337C13.2762 4.83337 13.5 4.60951 13.5 4.33337C13.5 4.05723 13.2762 3.83337 13 3.83337V4.83337ZM11.6667 3.83337C11.3905 3.83337 11.1667 4.05723 11.1667 4.33337C11.1667 4.60951 11.3905 4.83337 11.6667 4.83337V3.83337ZM13 18.5H3V19.5H13V18.5ZM3 18.5C2.14281 18.5 1.5 17.8572 1.5 17H0.5C0.5 18.4095 1.59052 19.5 3 19.5V18.5ZM1.5 17V3H0.5V17H1.5ZM1.5 3C1.5 2.14281 2.14281 1.5 3 1.5V0.5C1.59052 0.5 0.5 1.59052 0.5 3H1.5ZM3 1.5H13V0.5H3V1.5ZM13 1.5C13.8572 1.5 14.5 2.14281 14.5 3H15.5C15.5 1.59052 14.4095 0.5 13 0.5V1.5ZM14.5 3V17H15.5V3H14.5ZM14.5 17C14.5 17.8572 13.8572 18.5 13 18.5V19.5C14.4095 19.5 15.5 18.4095 15.5 17H14.5ZM12.0789 7.65628C11.8306 6.82862 11.1713 6.16934 10.3436 5.92104L10.0563 6.87887C10.562 7.03057 10.9693 7.43795 11.121 7.94362L12.0789 7.65628ZM10.3373 5.9192C9.17381 5.58676 8.17401 6.09509 7.60528 6.82631L8.39464 7.44025C8.75924 6.97148 9.35944 6.67982 10.0626 6.88072L10.3373 5.9192ZM8.40958 6.84655C7.82036 6.00481 6.73006 5.59064 5.65292 5.92207L5.947 6.87785C6.60319 6.67594 7.24623 6.92842 7.59034 7.42002L8.40958 6.84655ZM5.65629 5.92104C4.82863 6.16934 4.16934 6.82862 3.92105 7.65628L4.87887 7.94362C5.03058 7.43795 5.43795 7.03057 5.94363 6.87887L5.65629 5.92104ZM3.91489 7.67868C3.75124 8.33327 3.8373 8.91193 4.07372 9.46358L4.99287 9.06966C4.82928 8.68796 4.78201 8.3333 4.88503 7.92122L3.91489 7.67868ZM4.08608 9.49022C4.10726 9.53259 4.13535 9.58339 4.15243 9.61512C4.17284 9.65302 4.18937 9.68496 4.20311 9.71518C4.23327 9.78154 4.23329 9.80484 4.23329 9.79995H5.23329C5.23329 9.59506 5.16665 9.41836 5.11348 9.30138C5.07354 9.21353 4.98287 9.04774 4.98051 9.04301L4.08608 9.49022ZM4.25622 9.94962L5.32289 13.3496L6.27703 13.0503L5.21037 9.65028L4.25622 9.94962ZM5.31489 13.3212C5.44571 13.8445 5.9409 14.1666 6.46663 14.1666V13.1666C6.32568 13.1666 6.28754 13.0887 6.28503 13.0787L5.31489 13.3212ZM6.46663 14.1666C7.14277 14.1666 7.69996 13.6094 7.69996 12.9333H6.69996C6.69996 13.0571 6.59048 13.1666 6.46663 13.1666V14.1666ZM7.69996 12.9333V11.5999H6.69996V12.9333H7.69996ZM7.69996 11.5999C7.69996 11.4761 7.80943 11.3666 7.93329 11.3666V10.3666C7.25716 10.3666 6.69996 10.9238 6.69996 11.5999H7.69996ZM7.93329 11.3666H8.13329V10.3666H7.93329V11.3666ZM8.13329 11.3666C8.25716 11.3666 8.36663 11.4761 8.36663 11.5999H9.36663C9.36663 10.9238 8.80943 10.3666 8.13329 10.3666V11.3666ZM8.36663 11.5999V12.9333H9.36663V11.5999H8.36663ZM8.36663 12.9333C8.36663 13.6094 8.92381 14.1666 9.59996 14.1666V13.1666C9.47611 13.1666 9.36663 13.0571 9.36663 12.9333H8.36663ZM9.59996 14.1666C10.1257 14.1666 10.6209 13.8445 10.7517 13.3212L9.78156 13.0787C9.77904 13.0887 9.7409 13.1666 9.59996 13.1666V14.1666ZM10.7437 13.3496L11.8104 9.94962L10.8562 9.65028L9.78955 13.0503L10.7437 13.3496ZM11.8076 9.95806C11.8358 9.87371 11.864 9.80292 11.8975 9.71898C11.9306 9.63625 11.9691 9.54037 12.0076 9.42473L11.059 9.1085C11.0308 9.19286 11.0026 9.26365 10.9691 9.34759C10.936 9.43032 10.8975 9.52619 10.859 9.64184L11.8076 9.95806ZM12.0076 9.42473C12.1646 8.95398 12.2459 8.32233 12.085 7.67868L11.1149 7.92122C11.2206 8.34424 11.1687 8.77925 11.059 9.1085L12.0076 9.42473ZM1 10.8333H1.46667V9.83332H1V10.8333ZM1.46667 10.8333C2.20948 10.8333 2.83333 10.2095 2.83333 9.46665H1.83333C1.83333 9.65717 1.65719 9.83332 1.46667 9.83332V10.8333ZM2.83333 9.46665V9.19999H1.83333V9.46665H2.83333ZM2.83333 9.19999C2.83333 9.00946 3.00948 8.83332 3.2 8.83332V7.83332C2.45719 7.83332 1.83333 8.45718 1.83333 9.19999H2.83333ZM3.2 8.83332C3.29019 8.83332 3.41568 8.87645 3.53333 9.03332L4.33333 8.43332C4.05098 8.05685 3.64314 7.83332 3.2 7.83332V8.83332ZM3.5115 9.00176L4.44484 10.4684L5.2885 9.93155L4.35516 8.46488L3.5115 9.00176ZM11.5552 10.4018L12.4885 8.93515L11.6448 8.39827L10.7115 9.86493L11.5552 10.4018ZM12.5139 8.89032C12.5414 8.83531 12.6037 8.7667 12.8 8.7667V7.7667C12.3297 7.7667 11.8586 7.96478 11.6194 8.4431L12.5139 8.89032ZM12.8 8.7667C12.9905 8.7667 13.1667 8.94285 13.1667 9.13337H14.1667C14.1667 8.39057 13.5428 7.7667 12.8 7.7667V8.7667ZM13.1667 9.13337V9.40005H14.1667V9.13337H13.1667ZM13.1667 9.40005C13.1667 10.1429 13.7905 10.7667 14.5333 10.7667V9.7667C14.3428 9.7667 14.1667 9.59056 14.1667 9.40005H13.1667ZM14.5333 10.7667H15V9.7667H14.5333V10.7667ZM13 2.49997H10.3333V3.49997H13V2.49997ZM13 3.83337H11.6667V4.83337H13V3.83337Z" fill="#364665"/>
</svg>
