<svg width="18" height="20" viewBox="0 0 18 20" fill="none" xmlns="http://www.w3.org/2000/svg">
<path d="M15.1921 3.00455C14.5663 1.80182 13.2451 1 11.7849 1C10.8114 1 9.90749 1.33409 9.21214 1.93545C8.7254 2.40318 7.89099 2.40318 7.40425 1.93545C6.7089 1.33409 5.80496 1 4.83147 1C2.74544 1 1.00708 2.67046 1.00708 4.675C0.868013 8.08273 2.81498 15.5664 3.51033 18.1055C3.64939 18.5732 3.99706 18.9073 4.4838 18.9741C5.24868 19.1077 5.87449 18.5064 5.87449 17.8382V12.76C5.87449 11.4905 6.84797 10.3545 8.16913 10.2877C9.55982 10.2209 10.7419 11.29 10.7419 12.6264V17.7714C10.7419 18.3059 11.1591 18.8405 11.7154 18.9741C12.3412 19.1077 12.8975 18.7068 13.0365 18.1723C13.4537 16.7023 14.2882 13.4282 14.914 10.3546M17 6.34546L15.6093 4.34091H12.1326L10.7419 6.34546M17 6.34546L13.871 9.68637M17 6.34546H10.7419M13.871 9.68637L10.7419 6.34546M13.871 9.68637L12.4803 6.34546L13.1756 4.34091M13.871 9.68637L15.2616 6.34546L14.5663 4.34091" stroke="#364665" stroke-miterlimit="10" stroke-linecap="round" stroke-linejoin="round"/>
</svg>
