<svg width="20" height="14" viewBox="0 0 20 14" fill="none" xmlns="http://www.w3.org/2000/svg">
<path d="M1 4.19619H5M7 4.19619H13M15 4.19619H19M11.0667 5.95696H8.93333M16.9333 5.95696H17.6667C18.4 5.95696 19 6.59083 19 7.36556V13H1V7.36556C1 6.59083 1.6 5.95696 2.33333 5.95696H3.06667M17.6 2.5763C17.4 1.87199 16.8667 1.30854 16.2 1.09725C15.2667 0.815531 14.4667 1.23812 14 1.87199C13.5333 1.16769 12.6667 0.815531 11.8 1.09725C11.1333 1.30854 10.6 1.87199 10.4 2.5763C10.2667 3.13974 10.3333 3.63274 10.5333 4.12575C10.6 4.26661 10.7333 4.47792 10.7333 4.68921L11.8 8.98545C11.8667 9.26717 12.1333 9.47847 12.4667 9.47847C12.8667 9.47847 13.2 9.12632 13.2 8.70373V7.29512C13.2 6.87254 13.5333 6.52038 13.9333 6.52038H14.1333C14.5333 6.52038 14.8667 6.87254 14.8667 7.29512V8.70373C14.8667 9.12632 15.2 9.47847 15.6 9.47847C15.9333 9.47847 16.2 9.26717 16.2667 8.98545L17.3333 4.68921C17.4 4.47792 17.4667 4.33704 17.5333 4.12575C17.6667 3.70317 17.7333 3.13974 17.6 2.5763ZM5 3.13974H7V5.25265H5V3.13974ZM15 5.2559H13V3.14298H15V5.2559ZM9.6 2.5763C9.4 1.87199 8.86667 1.30854 8.2 1.09725C7.26667 0.815531 6.46667 1.23812 6 1.87199C5.53333 1.16769 4.66667 0.815531 3.8 1.09725C3.13333 1.30854 2.6 1.87199 2.4 2.5763C2.26667 3.13974 2.33333 3.63274 2.53333 4.12575C2.6 4.26661 2.73333 4.47792 2.73333 4.68921L3.8 8.98545C3.86667 9.26717 4.13333 9.47847 4.46667 9.47847C4.86667 9.47847 5.2 9.12632 5.2 8.70373V7.29512C5.2 6.87254 5.53333 6.52038 5.93333 6.52038H6.13333C6.53333 6.52038 6.86667 6.87254 6.86667 7.29512V8.70373C6.86667 9.12632 7.2 9.47847 7.6 9.47847C7.93333 9.47847 8.2 9.26717 8.26667 8.98545L9.33333 4.68921C9.4 4.47792 9.46667 4.33704 9.53333 4.12575C9.66667 3.70317 9.73333 3.13974 9.6 2.5763Z" stroke="#364665" stroke-miterlimit="10" stroke-linecap="round" stroke-linejoin="round"/>
</svg>
