<svg width="18" height="20" viewBox="0 0 18 20" fill="none" xmlns="http://www.w3.org/2000/svg">
<path d="M16.9925 4.675C16.9925 2.67046 15.0896 1 12.806 1C11.7404 1 10.7508 1.33409 9.98966 1.93546C9.45683 2.40318 8.54342 2.40318 8.01059 1.93546C7.24942 1.33409 6.25988 1 5.19423 1C2.9107 1 1.00775 2.67046 1.00775 4.675C0.855517 8.08273 2.98682 15.5664 3.748 18.1055C3.90023 18.5732 4.28082 18.9073 4.81365 18.9741C5.65094 19.1077 6.336 18.5064 6.336 17.8382V12.76C6.336 11.4905 7.40165 10.3545 8.84789 10.2877C10.3702 10.2209 11.6643 11.29 11.6643 12.6264V17.7714C11.6643 18.3059 12.121 18.8405 12.7299 18.9741C13.415 19.1077 14.0239 18.7068 14.1761 18.1723C14.9373 15.7 17.1447 8.08273 16.9925 4.675Z" stroke="#364665" stroke-miterlimit="10" stroke-linecap="round" stroke-linejoin="round"/>
<path d="M9.38072 5.67728L10.9031 5.00909V3.00455L12.4254 4.00682L14.3284 3.33864L13.9478 5.00909L15.4701 5.67728L13.5672 6.01137L13.9478 7.68182L12.4254 6.67955L10.9031 8.01591V6.34546L9.38072 5.67728Z" stroke="#364665" stroke-miterlimit="10" stroke-linecap="round" stroke-linejoin="round"/>
</svg>
