<svg width="20" height="20" viewBox="0 0 20 20" fill="none" xmlns="http://www.w3.org/2000/svg">
<path d="M1 8.35H6.33333V6.34546C6.33333 5.61046 6.93333 5.00909 7.66667 5.00909H12.3333C13.0667 5.00909 13.6667 5.61046 13.6667 6.34546V8.35H19M5.2 8.35C5.46667 11.4905 5.93333 15.6332 6.33333 17.3705C6.53333 15.4327 5 8.08273 9.8 8.35C9.86666 8.35 9.93333 8.35 10 8.35C10.0667 8.35 10.1333 8.35 10.2 8.35C15 8.08273 13.4667 15.4327 13.6667 17.3705C14 15.6332 14.5333 11.4905 14.8 8.35M17 4.675C17 2.67046 15.3333 1 13.3333 1C12.4 1 11.5333 1.33409 10.8667 1.93546C10.4 2.40318 9.59999 2.40318 9.13333 1.93546C8.46666 1.33409 7.6 1 6.66666 1C4.66666 1 2.99999 2.67046 2.99999 4.675C2.86666 8.08273 4.73333 15.5664 5.4 18.1055C5.53333 18.5732 5.86666 18.9073 6.33333 18.9741C7.06666 19.1077 7.66666 18.5064 7.66666 17.8382V12.76C7.66666 11.4905 8.6 10.3546 9.86666 10.2877C11.2 10.2209 12.3333 11.29 12.3333 12.6264V17.7714C12.3333 18.3059 12.7333 18.8405 13.2667 18.9741C13.8667 19.1077 14.4 18.7068 14.5333 18.1723C15.2 15.7 17.1333 8.08273 17 4.675Z" stroke="#364665" stroke-miterlimit="10" stroke-linecap="round" stroke-linejoin="round"/>
</svg>
