<svg width="42" height="44" viewBox="0 0 42 44" fill="none" xmlns="http://www.w3.org/2000/svg">
<path d="M39.9329 4.70396C37.5797 1.53319 35.1073 0.0564186 32.1524 0.0564186C30.2394 0.0564186 28.383 0.670031 26.5909 1.26219L26.5316 1.28171C24.6198 1.90955 22.814 2.50291 20.8655 2.50291C18.9129 2.50291 16.9991 1.86061 15.1364 1.2359C13.3092 0.628079 11.42 0 9.52884 0C6.55931 0 4.14502 1.50667 1.93204 4.73989C-1.54909 9.81009 0.427382 15.2395 2.02172 19.6182C2.73174 21.5664 3.40222 23.4062 3.40222 24.7955C3.40222 31.9286 4.90639 44 10.5443 44C14.4028 44 15.5899 39.5166 16.6401 35.55C17.7551 31.3743 18.7207 28.4186 21.0024 28.4186C22.9709 28.4186 23.7241 30.3322 24.7683 34.9197C25.6719 38.9279 26.7963 43.9156 31.5384 43.9156C38.1551 43.9156 38.6694 29.2738 38.6694 24.7863C38.6694 23.4692 39.3177 21.6447 40.0043 19.713L40.0316 19.6358C41.6112 15.167 43.5771 9.60563 39.9329 4.70396ZM36.622 18.4303L36.597 18.5017C35.803 20.7355 35.0532 22.8454 35.0532 24.7861C35.0532 29.0452 34.6053 33.1737 33.8239 36.113C32.9111 39.5468 31.8646 40.2988 31.5384 40.2988C30.086 40.2988 29.389 38.9715 28.2923 34.107C27.3983 30.1799 26.1743 24.8015 21.0024 24.8015C15.7673 24.8015 14.2523 30.4742 13.1414 34.6352C12.5353 36.924 11.6196 40.3829 10.5446 40.3829C10.3777 40.3829 9.32729 39.6577 8.36557 36.2111C7.5097 33.1442 7.01908 28.9832 7.01908 24.795C7.01908 22.7673 6.24228 20.6359 5.41461 18.3647C3.97505 14.4109 2.48655 10.3222 4.91531 6.7847C6.82548 3.99294 8.31953 3.61658 9.52884 3.61658C10.8346 3.61658 12.3699 4.127 13.9977 4.66828C16.0248 5.34843 18.3222 6.11949 20.8652 6.11949C23.3921 6.11949 25.6596 5.37496 27.6599 4.71795L27.7224 4.69745C29.316 4.17064 30.8216 3.67324 32.1524 3.67324C33.3943 3.67324 34.945 4.05177 37.03 6.86089C39.5255 10.2171 38.0495 14.3925 36.622 18.4303Z" fill="#02CAE1"/>
</svg>
